<?xml version="1.0" encoding="UTF-8" standalone="no"?>
<!-- Created with Inkscape (http://www.inkscape.org/) -->

<svg
   xmlns:dc="http://purl.org/dc/elements/1.1/"
   xmlns:cc="http://creativecommons.org/ns#"
   xmlns:rdf="http://www.w3.org/1999/02/22-rdf-syntax-ns#"
   xmlns:svg="http://www.w3.org/2000/svg"
   xmlns="http://www.w3.org/2000/svg"
   xmlns:sodipodi="http://sodipodi.sourceforge.net/DTD/sodipodi-0.dtd"
   xmlns:inkscape="http://www.inkscape.org/namespaces/inkscape"
   width="210mm"
   height="297mm"
   viewBox="0 0 210 297"
   version="1.1"
   id="svg8"
   inkscape:version="0.92.2 (5c3e80d, 2017-08-06)"
   sodipodi:docname="LalaLOGO.svg">
  <defs
     id="defs2" />
  <sodipodi:namedview
     id="base"
     pagecolor="#ffffff"
     bordercolor="#666666"
     borderopacity="1.0"
     inkscape:pageopacity="0.0"
     inkscape:pageshadow="2"
     inkscape:zoom="0.35"
     inkscape:cx="175.15828"
     inkscape:cy="560"
     inkscape:document-units="mm"
     inkscape:current-layer="layer1"
     showgrid="false"
     inkscape:window-width="1024"
     inkscape:window-height="716"
     inkscape:window-x="-8"
     inkscape:window-y="-8"
     inkscape:window-maximized="1" />
  <metadata
     id="metadata5">
    <rdf:RDF>
      <cc:Work
         rdf:about="">
        <dc:format>image/svg+xml</dc:format>
        <dc:type
           rdf:resource="http://purl.org/dc/dcmitype/StillImage" />
        <dc:title></dc:title>
      </cc:Work>
    </rdf:RDF>
  </metadata>
  <g
     inkscape:label="Layer 1"
     inkscape:groupmode="layer"
     id="layer1">
    <g
       transform="matrix(0.86106702,0,0,-1.8939872,-20.050187,416.27611)"
       inkscape:label="Welfare Foundation LOGO"
       id="g3950">
      <g
         id="g3952">
        <path
           inkscape:connector-curvature="0"
           id="path3954"
           style="fill:#050709;fill-opacity:1;fill-rule:nonzero;stroke:none"
           d="m 96.3763,158.7336 h 1.8218 c 1.1982,0 2.1742,-0.2625 2.9336,-0.7843 0.7565,-0.5219 1.1364,-1.1795 1.1364,-1.9763 0,-0.9726 -0.5497,-1.7847 -1.649,-2.4364 1.717,-0.5774 2.5753,-1.5809 2.5753,-3.0107 0,-0.9944 -0.4476,-1.794 -1.3399,-2.4023 -0.8958,-0.6086 -2.0906,-0.9142 -3.5915,-0.9142 h -1.8867 z m 1.5749,-1.3895 v -3.4092 c 0.8614,0.0124 1.5225,0.1791 1.9794,0.4972 0.4601,0.3211 0.6885,0.7596 0.6885,1.3218 0,0.4878 -0.2069,0.877 -0.6205,1.1701 -0.4138,0.2934 -0.9666,0.4385 -1.6613,0.4385 -0.1483,0 -0.2781,-0.006 -0.3861,-0.0184 z m 0,-4.7801 v -3.9464 h 0.1236 c 1.3402,0 2.251,0.216 2.7388,0.6514 0.4881,0.4354 0.7319,0.8771 0.7319,1.3309 0,0.5961 -0.2747,1.0746 -0.8212,1.4298 -0.5468,0.3552 -1.294,0.5343 -2.2481,0.5343 z" />
        <path
           inkscape:connector-curvature="0"
           id="path3956"
           style="fill:#050709;fill-opacity:1;fill-rule:nonzero;stroke:none"
           d="m 112.6993,150.6555 h -6.3734 c 0.1389,-0.7719 0.4538,-1.334 0.9447,-1.6892 0.4941,-0.3549 1.0285,-0.534 1.609,-0.534 0.8923,0 1.6427,0.3704 2.2447,1.1117 l 1.1489,-0.868 c -0.8617,-1.1146 -2.0165,-1.6704 -3.4648,-1.6704 -1.1117,0 -2.0381,0.3798 -2.7884,1.1426 -0.7472,0.7597 -1.1208,1.7045 -1.1208,2.8347 0,1.0593 0.3798,1.9732 1.1364,2.7513 0.7566,0.7752 1.6798,1.1642 2.7728,1.1642 1.0747,0 1.9948,-0.3921 2.7607,-1.1795 0.7659,-0.7875 1.1426,-1.8097 1.1302,-3.0634 z m -6.2068,1.26 h 4.5763 c -0.5094,1.0253 -1.2597,1.5378 -2.251,1.5378 -1.084,0 -1.859,-0.5125 -2.3253,-1.5378" />
        <path
           inkscape:connector-curvature="0"
           id="path3958"
           style="fill:#050709;fill-opacity:1;fill-rule:nonzero;stroke:none"
           d="m 119.0174,153.8022 -1.0499,-0.9232 c -0.2719,0.1944 -0.5066,0.3427 -0.7073,0.4416 -0.2007,0.1018 -0.4354,0.1511 -0.7072,0.1511 -0.6421,0 -0.9632,-0.2347 -0.9632,-0.707 0,-0.3398 0.4045,-0.667 1.2166,-0.985 0.8121,-0.3181 1.3958,-0.667 1.7507,-1.0468 0.3552,-0.383 0.5343,-0.84 0.5343,-1.3805 0,-0.6268 -0.2563,-1.1764 -0.7688,-1.6427 -0.5127,-0.4694 -1.1148,-0.7041 -1.8065,-0.7041 -1.0562,0 -1.9176,0.4878 -2.594,1.4607 l 1.2382,0.5958 c 0.4354,-0.4198 0.8864,-0.6298 1.3589,-0.6298 0.324,0 0.6084,0.0895 0.8521,0.2687 0.2441,0.176 0.3677,0.3827 0.3677,0.6205 0,0.417 -0.4295,0.7937 -1.2847,1.1302 -0.8586,0.3336 -1.4513,0.6732 -1.7787,1.0128 -0.3305,0.343 -0.4941,0.7628 -0.4941,1.2631 0,0.6208 0.2347,1.1395 0.701,1.5503 0.4694,0.4135 1.0562,0.6205 1.7632,0.6205 0.7041,0 1.4978,-0.3643 2.3717,-1.0962" />
        <path
           inkscape:connector-curvature="0"
           id="path3960"
           style="fill:#050709;fill-opacity:1;fill-rule:nonzero;stroke:none"
           d="m 121.1851,156.8254 h 1.5749 v -2.1493 h 1.5565 v -1.4638 H 122.76 v -6.0029 h -1.5749 v 6.0029 h -1.2413 v 1.4638 h 1.2413 z" />
        <path
           inkscape:connector-curvature="0"
           id="path3962"
           style="fill:#050709;fill-opacity:1;fill-rule:nonzero;stroke:none"
           d="m 138.0053,157.4583 -1.2753,-1.0221 c -0.3365,0.3489 -0.6423,0.6083 -0.917,0.7812 -0.2719,0.1701 -0.667,0.2565 -1.186,0.2565 -0.565,0 -1.0219,-0.1267 -1.374,-0.3829 -0.3521,-0.2535 -0.5281,-0.5837 -0.5281,-0.9851 0,-0.3458 0.1545,-0.6548 0.4601,-0.9204 0.3087,-0.2684 0.8305,-0.5587 1.5718,-0.8799 0.7381,-0.318 1.3155,-0.6145 1.7263,-0.8864 0.4136,-0.2746 0.7503,-0.5774 1.0159,-0.9079 0.2653,-0.3333 0.4601,-0.6823 0.5896,-1.0497 0.1299,-0.3645 0.1948,-0.7534 0.1948,-1.1642 0,-0.9572 -0.349,-1.7725 -1.044,-2.4457 -0.6979,-0.6763 -1.5407,-1.0128 -2.5319,-1.0128 -0.9635,0 -1.8159,0.2625 -2.5569,0.7906 -0.7381,0.5278 -1.3062,1.3215 -1.7047,2.3746 l 1.5749,0.4476 c 0.5712,-1.2969 1.4451,-1.9455 2.6218,-1.9455 0.5711,0 1.0468,0.1698 1.4235,0.5097 0.3799,0.3427 0.5681,0.7719 0.5681,1.2906 0,0.3121 -0.0987,0.6239 -0.2962,0.9357 -0.1979,0.315 -0.4417,0.5743 -0.7351,0.775 -0.2934,0.2038 -0.7597,0.4417 -1.402,0.7104 -0.6423,0.2718 -1.1364,0.5156 -1.4853,0.7381 -0.349,0.2192 -0.6483,0.4785 -0.9049,0.7844 -0.2531,0.3024 -0.4385,0.6052 -0.5587,0.9076 -0.1173,0.2997 -0.176,0.6239 -0.176,0.9666 0,0.8246 0.3302,1.5285 0.9941,2.109 0.6642,0.5806 1.4701,0.8708 2.4148,0.8708 0.6302,0 1.2663,-0.1358 1.9114,-0.4076 0.6424,-0.2716 1.1798,-0.6823 1.609,-1.2382" />
        <path
           inkscape:connector-curvature="0"
           id="path3964"
           style="fill:#050709;fill-opacity:1;fill-rule:nonzero;stroke:none"
           d="m 140.5806,156.8254 h 1.5749 v -2.1493 h 1.5565 v -1.4638 h -1.5565 v -6.0029 h -1.5749 v 6.0029 h -1.2413 v 1.4638 h 1.2413 z" />
        <path
           inkscape:connector-curvature="0"
           id="path3966"
           style="fill:#050709;fill-opacity:1;fill-rule:nonzero;stroke:none"
           d="m 152.5496,150.6555 h -6.3734 c 0.1389,-0.7719 0.4538,-1.334 0.9447,-1.6892 0.4941,-0.3549 1.0285,-0.534 1.609,-0.534 0.8923,0 1.6427,0.3704 2.2447,1.1117 l 1.1489,-0.868 c -0.8617,-1.1146 -2.0165,-1.6704 -3.4648,-1.6704 -1.1117,0 -2.0381,0.3798 -2.7884,1.1426 -0.7472,0.7597 -1.1208,1.7045 -1.1208,2.8347 0,1.0593 0.3798,1.9732 1.1364,2.7513 0.7566,0.7752 1.6798,1.1642 2.7728,1.1642 1.0747,0 1.9948,-0.3921 2.7607,-1.1795 0.7659,-0.7875 1.1426,-1.8097 1.1302,-3.0634 z m -6.2068,1.26 h 4.5763 c -0.5094,1.0253 -1.2597,1.5378 -2.251,1.5378 -1.084,0 -1.859,-0.5125 -2.3253,-1.5378" />
        <path
           inkscape:connector-curvature="0"
           id="path3968"
           style="fill:#050709;fill-opacity:1;fill-rule:nonzero;stroke:none"
           d="m 156.1439,154.6761 v -1.5006 0 c 0.7506,1.1486 1.7138,1.7229 2.8843,1.7229 0.9635,0 1.7909,-0.3858 2.4857,-1.1549 0.695,-0.7718 1.0408,-1.6891 1.0408,-2.7606 0,-1.0809 -0.352,-2.0135 -1.0593,-2.7978 -0.7041,-0.7872 -1.5346,-1.1795 -2.495,-1.1795 -0.5528,0 -1.0871,0.1451 -1.5965,0.4354 -0.5065,0.2871 -0.9295,0.7072 -1.26,1.2569 v 0 -4.9902 h -1.5746 v 10.9684 z m 4.7804,-3.6932 c 0,0.6607 -0.2472,1.2381 -0.7413,1.7294 -0.4941,0.4941 -1.0777,0.741 -1.7479,0.741 -0.6791,0 -1.269,-0.2441 -1.7662,-0.7351 -0.4972,-0.4909 -0.7472,-1.0683 -0.7472,-1.7353 0,-0.6823 0.2472,-1.2753 0.7381,-1.7788 0.491,-0.5031 1.0715,-0.7534 1.7416,-0.7534 0.6917,0 1.2875,0.2472 1.7816,0.7444 0.4941,0.4972 0.7413,1.093 0.7413,1.7878" />
        <path
           inkscape:connector-curvature="0"
           id="path3970"
           style="fill:#050709;fill-opacity:1;fill-rule:nonzero;stroke:none"
           d="m 104.1857,141.4996 3.6995,-8.5261 3.4679,8.0813 h 1.6427 l -5.1044,-11.8947 -3.7057,8.5444 -3.7054,-8.5444 -5.1231,11.8947 h 1.6242 l 3.5142,-8.1584 z" />
        <path
           inkscape:connector-curvature="0"
           id="path3972"
           style="fill:#050709;fill-opacity:1;fill-rule:nonzero;stroke:none"
           d="m 120.4809,132.9766 h -6.3734 c 0.1389,-0.7718 0.4539,-1.334 0.9448,-1.6891 0.4941,-0.3549 1.0284,-0.5341 1.609,-0.5341 0.8923,0 1.6426,0.3705 2.2447,1.1118 l 1.1489,-0.868 c -0.8617,-1.1146 -2.0166,-1.6705 -3.4648,-1.6705 -1.1117,0 -2.0381,0.3799 -2.7884,1.1427 -0.7472,0.7597 -1.1208,1.7045 -1.1208,2.8346 0,1.0593 0.3798,1.9732 1.1364,2.7513 0.7565,0.7753 1.6798,1.1642 2.7728,1.1642 1.0746,0 1.9948,-0.392 2.7607,-1.1795 0.7659,-0.7874 1.1426,-1.8096 1.1301,-3.0634 z m -6.2067,1.26 h 4.5763 c -0.5094,1.0253 -1.2598,1.5378 -2.251,1.5378 -1.084,0 -1.859,-0.5125 -2.3253,-1.5378" />
        <path
           inkscape:connector-curvature="0"
           id="path3974"
           style="fill:#050709;fill-opacity:1;fill-rule:nonzero;stroke:none"
           d="m 122.5006,141.2773 h 1.5747 v -11.7467 h -1.5747 z" />
        <path
           inkscape:connector-curvature="0"
           id="path3976"
           style="fill:#050709;fill-opacity:1;fill-rule:nonzero;stroke:none"
           d="m 130.8597,141.1846 v -1.5933 c -0.4603,0.2962 -0.8555,0.4444 -1.186,0.4444 -0.2778,0 -0.4969,-0.1017 -0.6545,-0.3086 -0.1576,-0.2039 -0.2347,-0.491 -0.2347,-0.8587 v -1.8711 h 2.0752 v -1.4451 h -2.0752 v -6.0216 h -1.575 v 6.0216 h -1.3711 v 1.4451 h 1.3711 v 1.7631 c 0,0.8493 0.2194,1.5288 0.658,2.035 0.4354,0.5066 1.0219,0.7597 1.7506,0.7597 0.3646,0 0.7753,-0.1236 1.2416,-0.3705" />
        <path
           inkscape:connector-curvature="0"
           id="path3978"
           style="fill:#050709;fill-opacity:1;fill-rule:nonzero;stroke:none"
           d="m 138.8081,136.9973 h 1.5749 v -7.4667 h -1.5749 v 1.4822 c -0.7688,-1.1239 -1.7198,-1.6861 -2.8562,-1.6861 -0.9851,0 -1.8281,0.3861 -2.526,1.1611 -0.6979,0.7719 -1.0468,1.7107 -1.0468,2.8162 0,1.0469 0.352,1.961 1.0559,2.7423 0.7041,0.7812 1.5318,1.1732 2.4797,1.1732 0.5868,0 1.1427,-0.1604 1.6705,-0.4847 0.525,-0.3212 0.9326,-0.7413 1.2229,-1.2569 z m 0.2225,-3.7457 c 0,0.6823 -0.2472,1.2691 -0.7382,1.7538 -0.4909,0.4881 -1.0808,0.7319 -1.7662,0.7319 -0.6701,0 -1.2538,-0.2407 -1.751,-0.7257 -0.4972,-0.4847 -0.7472,-1.0528 -0.7472,-1.7076 0,-0.7072 0.2441,-1.3093 0.7288,-1.8065 0.4847,-0.4972 1.0746,-0.7441 1.7694,-0.7441 0.6854,0 1.2753,0.2469 1.7662,0.741 0.491,0.491 0.7382,1.0777 0.7382,1.7572" />
        <path
           inkscape:connector-curvature="0"
           id="path3980"
           style="fill:#050709;fill-opacity:1;fill-rule:nonzero;stroke:none"
           d="m 144.4932,136.9973 v -1.5378 0 c 0.349,0.6205 0.6917,1.0684 1.025,1.3462 0.3368,0.2749 0.7722,0.4138 1.3062,0.4138 0.1514,0 0.3677,-0.0368 0.6517,-0.108 l -0.4632,-1.5749 c -0.3027,0.0587 -0.5034,0.0896 -0.5989,0.0896 -0.5343,0 -0.9822,-0.1854 -1.3434,-0.559 -0.3614,-0.3705 -0.5405,-0.8337 -0.5405,-1.3927 v -4.1439 h -1.5747 v 7.4667 z" />
        <path
           inkscape:connector-curvature="0"
           id="path3982"
           style="fill:#050709;fill-opacity:1;fill-rule:nonzero;stroke:none"
           d="m 156.3695,132.9766 h -6.3734 c 0.1389,-0.7718 0.4539,-1.334 0.9448,-1.6891 0.4941,-0.3549 1.0284,-0.5341 1.609,-0.5341 0.8923,0 1.6426,0.3705 2.2447,1.1118 l 1.1489,-0.868 c -0.8617,-1.1146 -2.0166,-1.6705 -3.4648,-1.6705 -1.1117,0 -2.0381,0.3799 -2.7884,1.1427 -0.7472,0.7597 -1.1209,1.7045 -1.1209,2.8346 0,1.0593 0.3799,1.9732 1.1365,2.7513 0.7565,0.7753 1.6798,1.1642 2.7728,1.1642 1.0746,0 1.9947,-0.392 2.7607,-1.1795 0.7659,-0.7874 1.1426,-1.8096 1.1301,-3.0634 z m -6.2067,1.26 h 4.5763 c -0.5094,1.0253 -1.2598,1.5378 -2.251,1.5378 -1.084,0 -1.859,-0.5125 -2.3253,-1.5378" />
        <path
           inkscape:connector-curvature="0"
           id="path3984"
           style="fill:#050709;fill-opacity:1;fill-rule:nonzero;stroke:none"
           d="m 163.3144,141.0548 h 6.3922 v -1.5749 h -4.8172 v -2.8531 h 4.8172 v -1.5749 h -4.8172 v -5.5213 h -1.575 z" />
        <path
           inkscape:connector-curvature="0"
           id="path3986"
           style="fill:#050709;fill-opacity:1;fill-rule:nonzero;stroke:none"
           d="m 170.8027,133.2947 c 0,1.0253 0.4014,1.9332 1.2076,2.7297 0.8059,0.7969 1.7322,1.1951 2.7759,1.1951 1.0747,0 2.0135,-0.392 2.8163,-1.1764 0.803,-0.7843 1.2044,-1.6985 1.2044,-2.7484 0,-1.0528 -0.3954,-1.9792 -1.1829,-2.7822 -0.7872,-0.8028 -1.6951,-1.2042 -2.7298,-1.2042 -1.1024,0 -2.0627,0.3952 -2.8749,1.1889 -0.8121,0.7934 -1.2166,1.726 -1.2166,2.7975 z m 6.4848,-0.003 c 0,0.6392 -0.2409,1.1919 -0.7256,1.6645 -0.4816,0.4725 -1.0562,0.7072 -1.7201,0.7072 -0.6823,0 -1.2691,-0.2378 -1.7632,-0.7166 -0.4909,-0.4785 -0.7381,-1.0465 -0.7381,-1.7107 0,-0.633 0.2503,-1.1857 0.7475,-1.6611 0.4972,-0.4725 1.0837,-0.7104 1.7538,-0.7104 0.6517,0 1.2229,0.2441 1.7107,0.7288 0.491,0.4879 0.735,1.0531 0.735,1.6983" />
        <path
           inkscape:connector-curvature="0"
           id="path3988"
           style="fill:#050709;fill-opacity:1;fill-rule:nonzero;stroke:none"
           d="m 180.1964,136.9973 h 1.575 v -4.2058 c 0,-1.2971 0.568,-1.9454 1.7076,-1.9454 0.5062,0 0.9079,0.1729 1.2041,0.5188 0.2934,0.3489 0.4417,0.8243 0.4417,1.4266 v 4.2058 h 1.5749 v -4.4592 c 0,-0.9354 -0.3059,-1.7045 -0.9173,-2.3065 -0.6083,-0.6021 -1.3895,-0.9049 -2.3375,-0.9049 -0.9697,0 -1.7509,0.3028 -2.3499,0.9049 -0.5989,0.602 -0.8986,1.3895 -0.8986,2.3624 z" />
        <path
           inkscape:connector-curvature="0"
           id="path3990"
           style="fill:#050709;fill-opacity:1;fill-rule:nonzero;stroke:none"
           d="m 188.3117,129.5306 v 7.4667 h 1.575 v -1.2382 c 0.4476,0.5 0.8552,0.8677 1.2197,1.1052 0.3643,0.2379 0.7719,0.3552 1.2198,0.3552 0.6701,0 1.2444,-0.2222 1.7198,-0.6701 0.4756,-0.4476 0.7134,-0.985 0.7134,-1.6149 v -5.4039 h -1.5749 v 4.947 c 0,0.4076 -0.1295,0.741 -0.392,1.0097 -0.2597,0.2656 -0.5899,0.3982 -0.9913,0.3982 -0.5219,0 -0.9697,-0.2222 -1.3496,-0.6669 -0.3767,-0.4448 -0.5649,-0.982 -0.5649,-1.6118 v -4.0762 z" />
        <path
           inkscape:connector-curvature="0"
           id="path3992"
           style="fill:#050709;fill-opacity:1;fill-rule:nonzero;stroke:none"
           d="m 203.0043,141.2773 h 1.5378 v -11.7467 h -1.5378 v 1.5562 c -0.7441,-1.1733 -1.717,-1.7601 -2.9211,-1.7601 -0.9729,0 -1.8065,0.3892 -2.5013,1.1705 -0.6948,0.7781 -1.0437,1.7138 -1.0437,2.8068 0,1.0715 0.3552,1.9888 1.0652,2.7607 0.7073,0.769 1.5534,1.1548 2.5353,1.1548 0.5899,0 1.1364,-0.1635 1.6458,-0.4878 0.5097,-0.3274 0.9173,-0.7503 1.2198,-1.2753 z m 0.1854,-7.9886 c 0,0.6701 -0.2472,1.2535 -0.7382,1.7447 -0.4909,0.4941 -1.0777,0.741 -1.76,0.741 -0.7041,0 -1.3,-0.2409 -1.7878,-0.7225 -0.4913,-0.4819 -0.735,-1.0684 -0.735,-1.7632 0,-0.667 0.25,-1.2506 0.7472,-1.7478 0.4972,-0.5003 1.0777,-0.7503 1.7416,-0.7503 0.7041,0 1.3031,0.2406 1.794,0.7256 0.491,0.4847 0.7382,1.0746 0.7382,1.7725" />
        <path
           inkscape:connector-curvature="0"
           id="path3994"
           style="fill:#050709;fill-opacity:1;fill-rule:nonzero;stroke:none"
           d="m 213.2286,136.9973 h 1.5749 v -7.4667 h -1.5749 v 1.4822 c -0.7688,-1.1239 -1.7198,-1.6861 -2.8562,-1.6861 -0.9851,0 -1.8281,0.3861 -2.526,1.1611 -0.6979,0.7719 -1.0468,1.7107 -1.0468,2.8162 0,1.0469 0.3521,1.961 1.0559,2.7423 0.7041,0.7812 1.5318,1.1732 2.4797,1.1732 0.5868,0 1.1427,-0.1604 1.6705,-0.4847 0.525,-0.3212 0.9326,-0.7413 1.2229,-1.2569 z m 0.2225,-3.7457 c 0,0.6823 -0.2472,1.2691 -0.7382,1.7538 -0.4909,0.4881 -1.0808,0.7319 -1.7662,0.7319 -0.6701,0 -1.2538,-0.2407 -1.751,-0.7257 -0.4972,-0.4847 -0.7472,-1.0528 -0.7472,-1.7076 0,-0.7072 0.2441,-1.3093 0.7288,-1.8065 0.4847,-0.4972 1.0746,-0.7441 1.7694,-0.7441 0.6854,0 1.2753,0.2469 1.7662,0.741 0.491,0.491 0.7382,1.0777 0.7382,1.7572" />
        <path
           inkscape:connector-curvature="0"
           id="path3996"
           style="fill:#050709;fill-opacity:1;fill-rule:nonzero;stroke:none"
           d="m 217.6722,139.1465 h 1.5749 v -2.1492 h 1.5565 v -1.4638 h -1.5565 v -6.0029 h -1.5749 v 6.0029 h -1.2413 v 1.4638 h 1.2413 z" />
        <path
           inkscape:connector-curvature="0"
           id="path3998"
           style="fill:#050709;fill-opacity:1;fill-rule:nonzero;stroke:none"
           d="m 221.8966,139.443 c 0,0.3271 0.1205,0.6083 0.3612,0.8462 0.244,0.2375 0.5281,0.358 0.8617,0.358 0.3271,0 0.6083,-0.1205 0.8461,-0.358 0.2376,-0.2379 0.3581,-0.5191 0.3581,-0.8462 0,-0.3305 -0.1205,-0.6145 -0.3581,-0.8524 -0.2378,-0.2347 -0.519,-0.352 -0.8461,-0.352 -0.3336,0 -0.6177,0.1173 -0.8617,0.352 -0.2407,0.2379 -0.3612,0.5219 -0.3612,0.8524 z m 0.4448,-2.4457 h 1.5746 v -7.4667 h -1.5746 z" />
        <path
           inkscape:connector-curvature="0"
           id="path4000"
           style="fill:#050709;fill-opacity:1;fill-rule:nonzero;stroke:none"
           d="m 225.8274,133.2947 c 0,1.0253 0.4014,1.9332 1.2076,2.7297 0.8059,0.7969 1.7322,1.1951 2.776,1.1951 1.0746,0 2.0134,-0.392 2.8162,-1.1764 0.803,-0.7843 1.2044,-1.6985 1.2044,-2.7484 0,-1.0528 -0.3954,-1.9792 -1.1829,-2.7822 -0.7872,-0.8028 -1.6951,-1.2042 -2.7297,-1.2042 -1.1024,0 -2.0628,0.3952 -2.8749,1.1889 -0.8122,0.7934 -1.2167,1.726 -1.2167,2.7975 z m 6.4849,-0.003 c 0,0.6392 -0.241,1.1919 -0.7257,1.6645 -0.4816,0.4725 -1.0562,0.7072 -1.7201,0.7072 -0.6823,0 -1.2691,-0.2378 -1.7631,-0.7166 -0.491,-0.4785 -0.7382,-1.0465 -0.7382,-1.7107 0,-0.633 0.2503,-1.1857 0.7475,-1.6611 0.4972,-0.4725 1.0837,-0.7104 1.7538,-0.7104 0.6517,0 1.2229,0.2441 1.7107,0.7288 0.491,0.4879 0.7351,1.0531 0.7351,1.6983" />
        <path
           inkscape:connector-curvature="0"
           id="path4002"
           style="fill:#050709;fill-opacity:1;fill-rule:nonzero;stroke:none"
           d="m 235.2212,129.5306 v 7.4667 h 1.5749 v -1.2382 c 0.4476,0.5 0.8552,0.8677 1.2197,1.1052 0.3643,0.2379 0.7719,0.3552 1.2198,0.3552 0.6701,0 1.2444,-0.2222 1.7198,-0.6701 0.4756,-0.4476 0.7135,-0.985 0.7135,-1.6149 v -5.4039 h -1.575 v 4.947 c 0,0.4076 -0.1295,0.741 -0.392,1.0097 -0.2597,0.2656 -0.5899,0.3982 -0.9913,0.3982 -0.5218,0 -0.9697,-0.2222 -1.3496,-0.6669 -0.3767,-0.4448 -0.5649,-0.982 -0.5649,-1.6118 v -4.0762 z" />
        <path
           inkscape:connector-curvature="0"
           id="path4004"
           style="fill:#393b3d;fill-opacity:1;fill-rule:nonzero;stroke:none"
           d="m 97.2153,115.005 h 1.7742 l -0.3438,0.9476 c -0.1052,0.2602 -0.1965,0.5031 -0.2739,0.7294 -0.0776,0.2259 -0.1595,0.4844 -0.2463,0.7755 h -0.0184 c -0.093,-0.2724 -0.1797,-0.525 -0.2602,-0.7571 -0.0805,-0.2322 -0.1735,-0.4845 -0.2787,-0.7572 z m 0.4459,3.558 h 0.9473 l 2.276,-5.8524 h -1.0403 l -0.5854,1.5327 h -2.2944 l -0.576,-1.5327 h -1.0312 z" />
        <path
           inkscape:connector-curvature="0"
           id="path4006"
           style="fill:#393b3d;fill-opacity:1;fill-rule:nonzero;stroke:none"
           d="m 107.983,118.5724 c 0.6378,0 1.1954,-0.1179 1.6721,-0.3532 l -0.2321,-0.8158 c -0.2602,0.1332 -0.5003,0.2307 -0.72,0.2942 -0.22,0.0635 -0.4414,0.0944 -0.6642,0.0944 -0.3345,0 -0.5978,-0.0697 -0.7897,-0.2075 -0.1919,-0.1378 -0.288,-0.3299 -0.288,-0.5743 0,-0.2168 0.0743,-0.3872 0.2231,-0.5142 0.1485,-0.1253 0.39,-0.2384 0.7245,-0.3404 l 0.576,-0.1798 c 0.5077,-0.1564 0.8793,-0.3747 1.1146,-0.6533 0.2353,-0.2787 0.3529,-0.6007 0.3529,-0.9661 0,-0.2463 -0.0493,-0.4705 -0.1485,-0.6749 -0.0989,-0.203 -0.2398,-0.3779 -0.4227,-0.5219 -0.1825,-0.144 -0.4042,-0.2554 -0.6641,-0.3376 -0.2602,-0.0805 -0.5482,-0.1207 -0.864,-0.1207 -0.3158,0 -0.6302,0.0294 -0.9428,0.0884 -0.3127,0.0587 -0.6177,0.1593 -0.915,0.3019 l 0.2321,0.7617 c 0.2665,-0.1239 0.5264,-0.2169 0.7804,-0.2787 0.254,-0.0621 0.5201,-0.093 0.7988,-0.093 0.3345,0 0.6069,0.0698 0.8175,0.2075 0.2106,0.1378 0.3158,0.3405 0.3158,0.6115 0,0.1922 -0.0726,0.3622 -0.2183,0.5125 -0.1454,0.1502 -0.4289,0.2911 -0.8498,0.4226 l -0.5482,0.1704 c -0.4272,0.1377 -0.7631,0.322 -1.0077,0.5527 -0.2447,0.2322 -0.3671,0.5542 -0.3671,0.9678 0,0.4969 0.1734,0.8963 0.5201,1.1968 0.347,0.2987 0.8516,0.449 1.5143,0.449" />
        <path
           inkscape:connector-curvature="0"
           id="path4008"
           style="fill:#393b3d;fill-opacity:1;fill-rule:nonzero;stroke:none"
           d="m 116.0493,118.563 v -0.8175 h -1.7652 v -5.0349 h -0.9938 v 5.0349 h -1.7371 v 0.8175 z" />
        <path
           inkscape:connector-curvature="0"
           id="path4010"
           style="fill:#393b3d;fill-opacity:1;fill-rule:nonzero;stroke:none"
           d="m 117.966,118.563 h 3.6227 v -0.7991 h -2.6288 v -1.6163 h 2.3873 v -0.7894 h -2.3873 v -1.8488 h 2.6569 v -0.7988 h -3.6508 z" />
        <path
           inkscape:connector-curvature="0"
           id="path4012"
           style="fill:#393b3d;fill-opacity:1;fill-rule:nonzero;stroke:none"
           d="m 123.7935,118.563 h 1.9134 c 0.3161,0 0.6024,-0.0402 0.8595,-0.1207 0.2568,-0.0805 0.4767,-0.1968 0.6593,-0.3484 0.1828,-0.1517 0.3251,-0.3376 0.4275,-0.5573 0.102,-0.22 0.1533,-0.4723 0.1533,-0.7571 0,-0.3161 -0.0558,-0.5899 -0.1672,-0.8224 -0.1114,-0.2321 -0.2665,-0.424 -0.4646,-0.5757 -0.1982,-0.1519 -0.432,-0.2647 -0.7013,-0.339 -0.2693,-0.0746 -0.5621,-0.1117 -0.8779,-0.1117 h -0.8082 v -2.2201 h -0.9938 z m 0.9938,-2.8426 h 0.5296 c 0.2106,0 0.4042,0.0153 0.5805,0.0465 0.1766,0.0309 0.3299,0.0851 0.4598,0.1625 0.1301,0.0773 0.2324,0.1828 0.3067,0.3157 0.0742,0.1333 0.1114,0.305 0.1114,0.5157 0,0.1859 -0.034,0.3438 -0.1021,0.4736 -0.0683,0.1301 -0.161,0.2356 -0.2789,0.3161 -0.1176,0.0805 -0.2506,0.1392 -0.3994,0.1763 -0.1485,0.0371 -0.3064,0.0558 -0.4737,0.0558 h -0.7339 z" />
        <path
           inkscape:connector-curvature="0"
           id="path4014"
           style="fill:#393b3d;fill-opacity:1;fill-rule:nonzero;stroke:none"
           d="m 137.283,118.563 v -0.8175 h -1.7651 v -5.0349 h -0.9938 v 5.0349 h -1.7371 v 0.8175 z" />
        <path
           inkscape:connector-curvature="0"
           id="path4016"
           style="fill:#393b3d;fill-opacity:1;fill-rule:nonzero;stroke:none"
           d="m 141.7263,118.5724 c 0.4026,0 0.7742,-0.0635 1.1149,-0.1905 0.3404,-0.1256 0.6347,-0.313 0.8824,-0.559 0.2478,-0.2478 0.4414,-0.5542 0.5806,-0.9213 0.1394,-0.3668 0.2092,-0.7894 0.2092,-1.2648 0,-0.4691 -0.0715,-0.8872 -0.2138,-1.2509 -0.1426,-0.364 -0.3407,-0.6721 -0.5944,-0.9213 -0.254,-0.2491 -0.5528,-0.4396 -0.8966,-0.5697 -0.3436,-0.1284 -0.7169,-0.1936 -1.1194,-0.1936 -0.4025,0 -0.7741,0.0635 -1.1146,0.1904 -0.3407,0.1253 -0.6349,0.3127 -0.8827,0.559 -0.2475,0.2478 -0.4411,0.5528 -0.5805,0.9165 -0.1392,0.3654 -0.2089,0.788 -0.2089,1.2696 0,0.4692 0.0711,0.887 0.2137,1.2509 0.1423,0.364 0.3404,0.6719 0.5944,0.9213 0.254,0.2492 0.5528,0.4397 0.8963,0.5698 0.3439,0.1284 0.7169,0.1936 1.1194,0.1936 z m -1.7555,-2.9356 c 0,-0.3639 0.0462,-0.6811 0.1392,-0.9521 0.093,-0.271 0.2183,-0.497 0.3762,-0.6753 0.1579,-0.1794 0.3438,-0.3109 0.5575,-0.3977 0.2135,-0.0867 0.4411,-0.1301 0.6826,-0.1301 0.2415,0 0.4677,0.0434 0.6784,0.1301 0.2103,0.0868 0.3914,0.2183 0.5434,0.3977 0.1516,0.1783 0.2724,0.4043 0.3622,0.6753 0.0899,0.271 0.1347,0.5882 0.1347,0.9521 0,0.3762 -0.0465,0.6982 -0.1395,0.9706 -0.0927,0.271 -0.2183,0.4941 -0.3761,0.6704 -0.1579,0.1752 -0.3436,0.305 -0.5573,0.3886 -0.2138,0.0836 -0.4414,0.1256 -0.6829,0.1256 -0.2415,0 -0.4674,-0.0434 -0.6781,-0.1301 -0.2106,-0.0868 -0.3917,-0.2183 -0.5434,-0.398 -0.1516,-0.178 -0.2724,-0.4039 -0.3622,-0.6749 -0.0899,-0.271 -0.1347,-0.5885 -0.1347,-0.9522" />
        <path
           inkscape:connector-curvature="0"
           id="path4018"
           style="fill:#393b3d;fill-opacity:1;fill-rule:nonzero;stroke:none"
           d="m 147.1266,118.563 0.8827,-3.2142 c 0.0184,-0.0805 0.0434,-0.1842 0.0743,-0.3112 0.0309,-0.127 0.0604,-0.26 0.0881,-0.3994 0.0278,-0.1395 0.0542,-0.2787 0.0791,-0.4181 0.0247,-0.1392 0.0465,-0.2648 0.0649,-0.3762 h 0.0188 c 0.0184,0.1114 0.0402,0.237 0.0649,0.3762 0.0246,0.1394 0.0527,0.2786 0.0836,0.4181 0.0309,0.1394 0.0618,0.271 0.093,0.3948 0.0309,0.1239 0.0586,0.2291 0.0836,0.3158 l 0.9195,3.2142 h 0.9477 l 0.9289,-3.1955 c 0.0246,-0.0745 0.0524,-0.1766 0.0836,-0.3067 0.0309,-0.1301 0.0618,-0.2662 0.0927,-0.4087 0.0312,-0.1423 0.0604,-0.2863 0.0884,-0.432 0.0278,-0.1455 0.0511,-0.271 0.0695,-0.3762 h 0.0187 c 0.0187,0.1114 0.0417,0.2353 0.0697,0.3716 0.0278,0.1364 0.0556,0.2741 0.0837,0.4133 0.0277,0.1395 0.0572,0.2741 0.0881,0.4042 0.0309,0.1301 0.059,0.2416 0.0836,0.3345 l 0.836,3.1955 h 1.0034 l -1.6443,-5.8524 h -1.0404 l -0.864,3.1306 c -0.068,0.2599 -0.1315,0.5077 -0.1904,0.7432 -0.0587,0.2353 -0.1222,0.4921 -0.1903,0.7711 h -0.0187 c -0.068,-0.279 -0.1301,-0.5327 -0.1856,-0.762 -0.0559,-0.229 -0.118,-0.4737 -0.186,-0.7339 l -0.8359,-3.149 h -1.0219 l -1.6815,5.8524 z" />
        <path
           inkscape:connector-curvature="0"
           id="path4020"
           style="fill:#393b3d;fill-opacity:1;fill-rule:nonzero;stroke:none"
           d="m 157.051,115.005 h 1.7742 l -0.3438,0.9476 c -0.1052,0.2602 -0.1965,0.5031 -0.2739,0.7294 -0.0776,0.2259 -0.1596,0.4844 -0.2463,0.7755 h -0.0184 c -0.093,-0.2724 -0.1797,-0.525 -0.2602,-0.7571 -0.0806,-0.2322 -0.1735,-0.4845 -0.2787,-0.7572 z m 0.4459,3.558 h 0.9473 l 2.276,-5.8524 h -1.0404 l -0.5853,1.5327 h -2.2944 l -0.576,-1.5327 h -1.0312 z" />
        <path
           inkscape:connector-curvature="0"
           id="path4022"
           style="fill:#393b3d;fill-opacity:1;fill-rule:nonzero;stroke:none"
           d="m 162.5811,118.563 h 2.0157 c 0.3096,0 0.5837,-0.045 0.8221,-0.1346 0.2384,-0.0899 0.4382,-0.2138 0.5992,-0.3716 0.161,-0.1579 0.2818,-0.3453 0.3623,-0.5622 0.0805,-0.2168 0.1207,-0.4521 0.1207,-0.7061 0,-0.229 -0.0357,-0.4334 -0.1068,-0.6128 -0.0712,-0.1797 -0.1625,-0.3362 -0.2741,-0.4691 -0.1114,-0.1333 -0.2367,-0.2478 -0.3762,-0.3439 -0.1392,-0.0961 -0.2801,-0.1718 -0.4226,-0.2276 l 1.5049,-2.4245 h -1.124 l -1.2914,2.2482 h -0.8638 v -2.2482 h -0.966 z m 0.966,-2.8148 h 0.6316 c 0.186,0 0.356,0.0187 0.5111,0.0559 0.1548,0.0371 0.2908,0.0958 0.4088,0.1763 0.1176,0.0805 0.2089,0.1842 0.2738,0.3112 0.0652,0.127 0.0975,0.2804 0.0975,0.4598 0,0.347 -0.0989,0.6055 -0.2971,0.7758 -0.1981,0.1704 -0.483,0.2554 -0.8546,0.2554 h -0.7711 z" />
        <path
           inkscape:connector-curvature="0"
           id="path4024"
           style="fill:#393b3d;fill-opacity:1;fill-rule:nonzero;stroke:none"
           d="m 170.7497,118.563 c 0.4272,0 0.8203,-0.0589 1.1795,-0.1766 0.3594,-0.1176 0.669,-0.2925 0.9292,-0.5247 0.2599,-0.2324 0.4629,-0.5235 0.6083,-0.8733 0.1454,-0.3498 0.2183,-0.7572 0.2183,-1.2215 0,-0.5513 -0.0868,-1.0204 -0.26,-1.4074 -0.1734,-0.3872 -0.4073,-0.703 -0.7015,-0.9476 -0.294,-0.2446 -0.6378,-0.4226 -1.031,-0.534 -0.3934,-0.1114 -0.8067,-0.1673 -1.2402,-0.1673 h -1.6534 v 5.8524 z m -0.957,-5.0536 h 0.576 c 0.2849,0 0.5621,0.0326 0.8314,0.0975 0.2693,0.0652 0.5094,0.1829 0.72,0.3532 0.2104,0.1704 0.3793,0.4008 0.5063,0.692 0.127,0.2911 0.1902,0.6627 0.1902,1.1148 0,0.6441 -0.184,1.1379 -0.5525,1.4817 -0.3685,0.3436 -0.8626,0.5153 -1.4816,0.5153 h -0.7898 z" />
        <path
           inkscape:connector-curvature="0"
           id="path4026"
           style="fill:#393b3d;fill-opacity:1;fill-rule:nonzero;stroke:none"
           d="m 177.6546,118.5724 c 0.6378,0 1.1954,-0.1179 1.6722,-0.3532 l -0.2322,-0.8158 c -0.2602,0.1332 -0.5003,0.2307 -0.72,0.2942 -0.22,0.0635 -0.4413,0.0944 -0.6641,0.0944 -0.3345,0 -0.5979,-0.0697 -0.7898,-0.2075 -0.1919,-0.1378 -0.288,-0.3299 -0.288,-0.5743 0,-0.2168 0.0743,-0.3872 0.2231,-0.5142 0.1485,-0.1253 0.3901,-0.2384 0.7245,-0.3404 l 0.576,-0.1798 c 0.5077,-0.1564 0.8794,-0.3747 1.1146,-0.6533 0.2353,-0.2787 0.3529,-0.6007 0.3529,-0.9661 0,-0.2463 -0.0493,-0.4705 -0.1485,-0.6749 -0.0989,-0.203 -0.2398,-0.3779 -0.4226,-0.5219 -0.1826,-0.144 -0.4043,-0.2554 -0.6642,-0.3376 -0.2602,-0.0805 -0.5482,-0.1207 -0.864,-0.1207 -0.3158,0 -0.6301,0.0294 -0.9428,0.0884 -0.3127,0.0587 -0.6177,0.1593 -0.915,0.3019 l 0.2321,0.7617 c 0.2665,-0.1239 0.5264,-0.2169 0.7804,-0.2787 0.254,-0.0621 0.5202,-0.093 0.7988,-0.093 0.3345,0 0.6069,0.0698 0.8175,0.2075 0.2106,0.1378 0.3158,0.3405 0.3158,0.6115 0,0.1922 -0.0726,0.3622 -0.2183,0.5125 -0.1454,0.1502 -0.4288,0.2911 -0.8498,0.4226 l -0.5482,0.1704 c -0.4272,0.1377 -0.7631,0.322 -1.0077,0.5527 -0.2447,0.2322 -0.3671,0.5542 -0.3671,0.9678 0,0.4969 0.1735,0.8963 0.5201,1.1968 0.347,0.2987 0.8516,0.449 1.5143,0.449" />
        <path
           inkscape:connector-curvature="0"
           id="path4028"
           style="fill:#393b3d;fill-opacity:1;fill-rule:nonzero;stroke:none"
           d="m 187.0756,118.5724 c 0.6378,0 1.1953,-0.1179 1.6721,-0.3532 l -0.2321,-0.8158 c -0.2603,0.1332 -0.5004,0.2307 -0.72,0.2942 -0.22,0.0635 -0.4414,0.0944 -0.6642,0.0944 -0.3345,0 -0.5978,-0.0697 -0.7897,-0.2075 -0.1919,-0.1378 -0.288,-0.3299 -0.288,-0.5743 0,-0.2168 0.0742,-0.3872 0.2231,-0.5142 0.1485,-0.1253 0.39,-0.2384 0.7245,-0.3404 l 0.576,-0.1798 c 0.5077,-0.1564 0.8793,-0.3747 1.1146,-0.6533 0.2352,-0.2787 0.3529,-0.6007 0.3529,-0.9661 0,-0.2463 -0.0493,-0.4705 -0.1485,-0.6749 -0.099,-0.203 -0.2399,-0.3779 -0.4227,-0.5219 -0.1825,-0.144 -0.4042,-0.2554 -0.6642,-0.3376 -0.2602,-0.0805 -0.5482,-0.1207 -0.864,-0.1207 -0.3157,0 -0.6301,0.0294 -0.9428,0.0884 -0.3126,0.0587 -0.6176,0.1593 -0.915,0.3019 l 0.2322,0.7617 c 0.2664,-0.1239 0.5264,-0.2169 0.7804,-0.2787 0.2539,-0.0621 0.5201,-0.093 0.7988,-0.093 0.3344,0 0.6069,0.0698 0.8175,0.2075 0.2106,0.1378 0.3158,0.3405 0.3158,0.6115 0,0.1922 -0.0726,0.3622 -0.2183,0.5125 -0.1454,0.1502 -0.4289,0.2911 -0.8498,0.4226 l -0.5483,0.1704 c -0.4271,0.1377 -0.763,0.322 -1.0077,0.5527 -0.2446,0.2322 -0.3671,0.5542 -0.3671,0.9678 0,0.4969 0.1735,0.8963 0.5202,1.1968 0.347,0.2987 0.8515,0.449 1.5143,0.449" />
        <path
           inkscape:connector-curvature="0"
           id="path4030"
           style="fill:#393b3d;fill-opacity:1;fill-rule:nonzero;stroke:none"
           d="m 191.2031,118.563 h 0.9938 v -3.4449 c 0,-0.5729 0.1086,-0.9876 0.3251,-1.2433 0.2169,-0.2554 0.5639,-0.3838 1.0406,-0.3838 0.4706,0 0.8127,0.1392 1.0265,0.4164 0.2137,0.2772 0.3206,0.644 0.3206,1.1007 v 3.5549 h 0.9938 v -3.5178 c 0,-0.7988 -0.2027,-1.3901 -0.6083,-1.7711 -0.4057,-0.3824 -0.9834,-0.5728 -1.7326,-0.5728 -0.737,0 -1.3144,0.1904 -1.7325,0.5728 -0.4181,0.381 -0.627,0.9879 -0.627,1.8176 z" />
        <path
           inkscape:connector-curvature="0"
           id="path4032"
           style="fill:#393b3d;fill-opacity:1;fill-rule:nonzero;stroke:none"
           d="m 201.0623,113.5003 c 0.3033,0 0.5558,0.0247 0.7571,0.0757 0.2013,0.0496 0.3917,0.1163 0.5712,0.1982 l 0.2137,-0.7572 c -0.1981,-0.0927 -0.4274,-0.1686 -0.6874,-0.2273 -0.2602,-0.059 -0.5791,-0.0884 -0.957,-0.0884 -0.4025,0 -0.7786,0.0652 -1.1284,0.1936 -0.3501,0.1301 -0.6534,0.3206 -0.9105,0.5697 -0.2571,0.2492 -0.4598,0.5573 -0.6083,0.9213 -0.1489,0.3637 -0.2231,0.7818 -0.2231,1.2509 0,0.4584 0.0711,0.8686 0.2137,1.2322 0.1423,0.3654 0.3421,0.6736 0.5993,0.9261 0.2568,0.2537 0.5635,0.4459 0.9195,0.5789 0.356,0.1318 0.7478,0.1984 1.175,0.1984 0.3903,0 0.7106,-0.0326 0.9615,-0.0978 0.2508,-0.0649 0.4722,-0.15 0.6641,-0.2554 l -0.2321,-0.7787 c -0.2106,0.1006 -0.4102,0.1811 -0.5993,0.2415 -0.1887,0.0604 -0.4133,0.0913 -0.6735,0.0913 -0.2661,0 -0.5184,-0.0386 -0.7568,-0.1159 -0.2384,-0.0777 -0.4459,-0.203 -0.6225,-0.3765 -0.1766,-0.1718 -0.3175,-0.3946 -0.4227,-0.6656 -0.1051,-0.271 -0.1578,-0.5978 -0.1578,-0.9785 0,-0.381 0.051,-0.7075 0.1533,-0.9785 0.1021,-0.271 0.2384,-0.4924 0.4085,-0.6627 0.1703,-0.1687 0.3716,-0.294 0.604,-0.3745 0.2322,-0.0805 0.4782,-0.1208 0.7385,-0.1208" />
        <path
           inkscape:connector-curvature="0"
           id="path4034"
           style="fill:#393b3d;fill-opacity:1;fill-rule:nonzero;stroke:none"
           d="m 207.4192,113.5003 c 0.3034,0 0.5559,0.0247 0.7572,0.0757 0.2012,0.0496 0.3917,0.1163 0.5712,0.1982 l 0.2137,-0.7572 c -0.1982,-0.0927 -0.4275,-0.1686 -0.6874,-0.2273 -0.2602,-0.059 -0.5791,-0.0884 -0.957,-0.0884 -0.4025,0 -0.7787,0.0652 -1.1285,0.1936 -0.35,0.1301 -0.6533,0.3206 -0.9104,0.5697 -0.2571,0.2492 -0.4598,0.5573 -0.6084,0.9213 -0.1488,0.3637 -0.223,0.7818 -0.223,1.2509 0,0.4584 0.0711,0.8686 0.2137,1.2322 0.1423,0.3654 0.3421,0.6736 0.5992,0.9261 0.2568,0.2537 0.5636,0.4459 0.9196,0.5789 0.356,0.1318 0.7478,0.1984 1.1749,0.1984 0.3904,0 0.7107,-0.0326 0.9616,-0.0978 0.2508,-0.0649 0.4722,-0.15 0.6641,-0.2554 l -0.2321,-0.7787 c -0.2107,0.1006 -0.4102,0.1811 -0.5993,0.2415 -0.1888,0.0604 -0.4133,0.0913 -0.6735,0.0913 -0.2662,0 -0.5185,-0.0386 -0.7568,-0.1159 -0.2384,-0.0777 -0.4459,-0.203 -0.6225,-0.3765 -0.1766,-0.1718 -0.3175,-0.3946 -0.4227,-0.6656 -0.1051,-0.271 -0.1579,-0.5978 -0.1579,-0.9785 0,-0.381 0.0511,-0.7075 0.1534,-0.9785 0.102,-0.271 0.2384,-0.4924 0.4085,-0.6627 0.1703,-0.1687 0.3716,-0.294 0.604,-0.3745 0.2322,-0.0805 0.4782,-0.1208 0.7384,-0.1208" />
        <path
           inkscape:connector-curvature="0"
           id="path4036"
           style="fill:#393b3d;fill-opacity:1;fill-rule:nonzero;stroke:none"
           d="m 211.1102,118.563 h 3.6227 v -0.7991 h -2.6288 v -1.6163 h 2.3873 v -0.7894 h -2.3873 v -1.8488 h 2.6569 v -0.7988 h -3.6508 z" />
        <path
           inkscape:connector-curvature="0"
           id="path4038"
           style="fill:#393b3d;fill-opacity:1;fill-rule:nonzero;stroke:none"
           d="m 218.6654,118.5724 c 0.6378,0 1.1954,-0.1179 1.6722,-0.3532 l -0.2322,-0.8158 c -0.2602,0.1332 -0.5003,0.2307 -0.72,0.2942 -0.22,0.0635 -0.4413,0.0944 -0.6641,0.0944 -0.3345,0 -0.5979,-0.0697 -0.7898,-0.2075 -0.1919,-0.1378 -0.288,-0.3299 -0.288,-0.5743 0,-0.2168 0.0743,-0.3872 0.2231,-0.5142 0.1485,-0.1253 0.3901,-0.2384 0.7245,-0.3404 l 0.576,-0.1798 c 0.5077,-0.1564 0.8794,-0.3747 1.1146,-0.6533 0.2353,-0.2787 0.3529,-0.6007 0.3529,-0.9661 0,-0.2463 -0.0493,-0.4705 -0.1485,-0.6749 -0.0989,-0.203 -0.2398,-0.3779 -0.4226,-0.5219 -0.1826,-0.144 -0.4043,-0.2554 -0.6642,-0.3376 -0.2602,-0.0805 -0.5482,-0.1207 -0.864,-0.1207 -0.3158,0 -0.6301,0.0294 -0.9428,0.0884 -0.3127,0.0587 -0.6177,0.1593 -0.915,0.3019 l 0.2321,0.7617 c 0.2665,-0.1239 0.5264,-0.2169 0.7804,-0.2787 0.254,-0.0621 0.5202,-0.093 0.7988,-0.093 0.3345,0 0.6069,0.0698 0.8175,0.2075 0.2106,0.1378 0.3158,0.3405 0.3158,0.6115 0,0.1922 -0.0726,0.3622 -0.2183,0.5125 -0.1454,0.1502 -0.4288,0.2911 -0.8498,0.4226 l -0.5482,0.1704 c -0.4272,0.1377 -0.7631,0.322 -1.0077,0.5527 -0.2447,0.2322 -0.3671,0.5542 -0.3671,0.9678 0,0.4969 0.1735,0.8963 0.5201,1.1968 0.347,0.2987 0.8516,0.449 1.5143,0.449" />
        <path
           inkscape:connector-curvature="0"
           id="path4040"
           style="fill:#393b3d;fill-opacity:1;fill-rule:nonzero;stroke:none"
           d="m 224.5765,118.5724 c 0.6378,0 1.1954,-0.1179 1.6722,-0.3532 l -0.2322,-0.8158 c -0.2602,0.1332 -0.5003,0.2307 -0.72,0.2942 -0.22,0.0635 -0.4414,0.0944 -0.6642,0.0944 -0.3344,0 -0.5978,-0.0697 -0.7897,-0.2075 -0.1919,-0.1378 -0.288,-0.3299 -0.288,-0.5743 0,-0.2168 0.0743,-0.3872 0.2231,-0.5142 0.1485,-0.1253 0.39,-0.2384 0.7245,-0.3404 l 0.576,-0.1798 c 0.5077,-0.1564 0.8793,-0.3747 1.1146,-0.6533 0.2353,-0.2787 0.3529,-0.6007 0.3529,-0.9661 0,-0.2463 -0.0493,-0.4705 -0.1485,-0.6749 -0.0989,-0.203 -0.2398,-0.3779 -0.4226,-0.5219 -0.1826,-0.144 -0.4043,-0.2554 -0.6642,-0.3376 -0.2602,-0.0805 -0.5482,-0.1207 -0.864,-0.1207 -0.3158,0 -0.6301,0.0294 -0.9428,0.0884 -0.3127,0.0587 -0.6177,0.1593 -0.915,0.3019 l 0.2321,0.7617 c 0.2665,-0.1239 0.5264,-0.2169 0.7804,-0.2787 0.254,-0.0621 0.5202,-0.093 0.7988,-0.093 0.3345,0 0.6069,0.0698 0.8175,0.2075 0.2106,0.1378 0.3158,0.3405 0.3158,0.6115 0,0.1922 -0.0726,0.3622 -0.2183,0.5125 -0.1454,0.1502 -0.4289,0.2911 -0.8498,0.4226 l -0.5482,0.1704 c -0.4272,0.1377 -0.7631,0.322 -1.0077,0.5527 -0.2447,0.2322 -0.3671,0.5542 -0.3671,0.9678 0,0.4969 0.1735,0.8963 0.5201,1.1968 0.347,0.2987 0.8516,0.449 1.5143,0.449" />
        <path
           inkscape:connector-curvature="0"
           id="path4042"
           style="fill:#393b3d;fill-opacity:1;fill-rule:evenodd;stroke:none"
           d="m 94.8674,124.3443 h 147.291 v -0.8541 H 94.8674 Z" />
        <g
           id="g4044">
          <path
             inkscape:connector-curvature="0"
             id="path4046"
             style="fill:#fab947;fill-opacity:1;fill-rule:evenodd;stroke:none"
             d="m 56.7573,145.2781 11.0338,4.5188 -0.0085,-8.9263 -0.0116,-0.005 -11.0137,4.4121 z" />
          <path
             inkscape:connector-curvature="0"
             id="path4048"
             style="fill:#67c874;fill-opacity:1;fill-rule:evenodd;stroke:none"
             d="m 78.8097,150.5205 11.4386,4.438 v -27.002 c 0,-3.6193 -2.5736,-7.5785 -5.7192,-8.7991 l -5.7194,-2.2189 z" />
          <path
             inkscape:connector-curvature="0"
             id="path4050"
             style="fill:#a3dda0;fill-opacity:1;fill-rule:evenodd;stroke:none"
             d="m 67.7962,154.9324 11.2641,4.6134 11.188,-4.5876 -11.4386,-4.4377 z" />
          <path
             inkscape:connector-curvature="0"
             id="path4052"
             style="fill:#3db94f;fill-opacity:1;fill-rule:evenodd;stroke:none"
             d="m 78.8097,150.5795 -11.0135,4.3787 -0.0261,-26.9467 11.0396,-4.7676 z" />
          <path
             inkscape:connector-curvature="0"
             id="path4054"
             style="fill:#f36917;fill-opacity:1;fill-rule:evenodd;stroke:none"
             d="m 56.7573,145.2781 11.0389,-4.443 v -6.4363 l -10.9383,4.644 z" />
          <path
             inkscape:connector-curvature="0"
             id="path4056"
             style="fill:#f57a9c;fill-opacity:1;fill-rule:evenodd;stroke:none"
             d="m 45.845,134.4294 11.0129,4.6134 10.9383,-4.644 -11.0389,-4.4405 z" />
          <path
             inkscape:connector-curvature="0"
             id="path4058"
             style="fill:#ed164b;fill-opacity:1;fill-rule:evenodd;stroke:none"
             d="m 45.8416,134.4308 v -6.8828 c 0,-3.4537 2.4562,-7.2323 5.4578,-8.3968 l 5.4579,-2.1175 v 12.9246 z" />
          <path
             inkscape:connector-curvature="0"
             id="path4060"
             style="fill:#f14487;fill-opacity:1;fill-rule:evenodd;stroke:none"
             d="m 56.7573,129.9583 11.0389,4.4405 -0.0261,-6.3873 -11.0128,-4.6443 z" />
          <path
             inkscape:connector-curvature="0"
             id="path4062"
             style="fill:#ad8ecc;fill-opacity:1;fill-rule:evenodd;stroke:none"
             d="m 56.732,123.3567 11.0381,4.6548 11.0396,-4.7676 -11.039,-4.3302 z" />
          <path
             inkscape:connector-curvature="0"
             id="path4064"
             style="fill:#8758b2;fill-opacity:1;fill-rule:evenodd;stroke:none"
             d="m 67.771,118.9137 11.0387,4.3302 v -6.3051 L 67.771,112.6086 Z" />
          <path
             inkscape:connector-curvature="0"
             id="path4066"
             style="fill:#673a98;fill-opacity:1;fill-rule:evenodd;stroke:none"
             d="m 56.732,123.3567 11.039,-4.443 v -6.3051 l -11.039,4.4345 z" />
          <path
             inkscape:connector-curvature="0"
             id="path4068"
             style="fill:#f36917;fill-opacity:1;fill-rule:evenodd;stroke:none"
             d="m 48.3979,141.4783 c -0.1545,-0.3424 0.2429,-0.1545 -0.1701,-0.4221 l 0.6129,0.2948 c 0.3546,0.387 0.4614,0.3623 0.8835,0.7212 l 2.3508,1.885 c 1.639,1.2841 9.0482,7.1096 10.7524,5.8411 0.8424,-0.9488 -0.125,-2.7871 -0.4655,-3.9708 1.3609,0.5111 3.2043,3.0271 3.7755,4.3311 1.1463,2.6163 -0.5315,3.6022 -3.0322,3.7278 1.0907,4.3775 3.0724,10.2056 2.372,15.0539 -0.4402,-1.9885 -1.0939,-3.9523 -1.8079,-5.7608 -0.9202,-2.3301 -1.3454,-3.3877 -4.2976,-2.6924 -3.9096,0.921 -7.405,3.9745 -12.2514,3.4875 0.2361,-0.2168 0.1707,-0.1752 0.5423,-0.371 l 1.459,-0.4621 c 0.6236,-0.1905 1.3093,-0.4728 1.8711,-0.7248 8.2999,-3.7202 7.0203,-9.0714 2.2862,-15.6645 -0.7209,-1.0038 -3.9875,-4.8232 -4.881,-5.2739" />
          <path
             inkscape:connector-curvature="0"
             id="path4070"
             style="fill:#fab947;fill-opacity:1;fill-rule:evenodd;stroke:none"
             d="m 60.035,166.6712 c 1.4626,0 2.6484,-1.1857 2.6484,-2.6484 0,-1.4627 -1.1858,-2.6484 -2.6484,-2.6484 -1.4627,0 -2.6484,1.1857 -2.6484,2.6484 0,1.4627 1.1857,2.6484 2.6484,2.6484" />
          <path
             inkscape:connector-curvature="0"
             id="path4072"
             style="fill:#3db94f;fill-opacity:1;fill-rule:evenodd;stroke:none"
             d="m 65.5461,175.3917 0.7954,-2.4647 2.59,0.005 -2.0979,-1.5182 0.805,-2.4616 -2.0925,1.5264 -2.0926,-1.5264 0.8051,2.4616 -2.0979,1.5182 2.59,-0.005 z" />
        </g>
      </g>
    </g>
  </g>
</svg>
