<?xml version="1.0" encoding="UTF-8" standalone="no"?>
<!-- Created with Inkscape (http://www.inkscape.org/) -->

<svg
   xmlns:dc="http://purl.org/dc/elements/1.1/"
   xmlns:cc="http://creativecommons.org/ns#"
   xmlns:rdf="http://www.w3.org/1999/02/22-rdf-syntax-ns#"
   xmlns:svg="http://www.w3.org/2000/svg"
   xmlns="http://www.w3.org/2000/svg"
   xmlns:sodipodi="http://sodipodi.sourceforge.net/DTD/sodipodi-0.dtd"
   xmlns:inkscape="http://www.inkscape.org/namespaces/inkscape"
   width="210mm"
   height="297mm"
   viewBox="0 0 210 297"
   version="1.1"
   id="svg8"
   sodipodi:docname="nelogos2.svg"
   inkscape:version="0.92.2 (5c3e80d, 2017-08-06)">
  <defs
     id="defs2" />
  <sodipodi:namedview
     id="base"
     pagecolor="#ffffff"
     bordercolor="#666666"
     borderopacity="1.0"
     inkscape:pageopacity="0.0"
     inkscape:pageshadow="2"
     inkscape:zoom="0.7"
     inkscape:cx="589.62924"
     inkscape:cy="656.16244"
     inkscape:document-units="mm"
     inkscape:current-layer="layer1"
     showgrid="false"
     inkscape:measure-start="204.051,802.061"
     inkscape:measure-end="185.868,880.853"
     inkscape:window-width="1024"
     inkscape:window-height="716"
     inkscape:window-x="-8"
     inkscape:window-y="-8"
     inkscape:window-maximized="1" />
  <metadata
     id="metadata5">
    <rdf:RDF>
      <cc:Work
         rdf:about="">
        <dc:format>image/svg+xml</dc:format>
        <dc:type
           rdf:resource="http://purl.org/dc/dcmitype/StillImage" />
        <dc:title></dc:title>
      </cc:Work>
    </rdf:RDF>
  </metadata>
  <g
     inkscape:label="Layer 1"
     inkscape:groupmode="layer"
     id="layer1">
    <path
       sodipodi:type="spiral"
       style="fill:#501616;fill-rule:evenodd;stroke:#000000;stroke-width:0.32708365"
       id="path1307"
       sodipodi:cx="13.502068"
       sodipodi:cy="118.56249"
       sodipodi:expansion="54.959999"
       sodipodi:revolution="3"
       sodipodi:radius="203.54842"
       sodipodi:argument="-19.183626"
       sodipodi:t0="0.048999999"
       d="m 13.502068,118.56249 c 0,0 0,0 0,0 0,0 0,0 0,0 1e-6,0 2e-6,0 3e-6,1e-5 3.3e-4,5.8e-4 -8.77e-4,0.001 -0.0015,0.001 -0.106284,0.0561 -0.295834,-0.31349 -0.298622,-0.31913 C 5.657454,102.98837 53.146533,79.726461 56.039349,78.38804 102.15928,57.049709 155.66502,52.00495 205.79743,51.820806"
       transform="matrix(1.4054765,0,0,0.82037896,-5.016008,28.095081)" />
    <path
       sodipodi:type="spiral"
       style="fill:#501616;fill-rule:evenodd;stroke:#000000;stroke-width:0.32708365"
       id="path1309"
       sodipodi:cx="43.238464"
       sodipodi:cy="120.54492"
       sodipodi:expansion="54.959999"
       sodipodi:revolution="3"
       sodipodi:radius="155.93407"
       sodipodi:argument="-19.195431"
       sodipodi:t0="0.048999999"
       d="m 43.238464,120.54492 c 0,0 0,0 0,0 0,0 0,0 0,0 8e-6,0 7e-6,2e-5 8e-6,2e-5 1.71e-4,0.003 -0.0047,0.002 -0.0072,0.002 -0.396621,0.0163 -0.438416,-1.31148 -0.438979,-1.34952 C 42.191435,78.630122 179.90982,67.835406 189.938,67.680181"
       transform="matrix(1.4054765,0,0,0.82037896,-5.016008,28.095081)" />
    <path
       sodipodi:type="spiral"
       style="fill:#501616;fill-rule:evenodd;stroke:#000000;stroke-width:0.32708365"
       id="path1311"
       sodipodi:cx="66.366776"
       sodipodi:cy="109.97198"
       sodipodi:expansion="54.959999"
       sodipodi:revolution="3"
       sodipodi:radius="109.16353"
       sodipodi:argument="-19.075447"
       sodipodi:t0="0.048999999"
       d="m 66.366776,109.97198 c 0,0 0,0 0,0 0,0 0,0 0,0 5e-6,0 3e-6,1e-5 3e-6,1e-5 -9.3e-5,0.002 -0.0034,0.001 -0.0052,0.001 -0.277028,-0.0219 -0.194817,-0.94825 -0.192022,-0.97474 C 69.55461,76.931647 164.59533,84.666018 172.75699,85.522079"
       transform="matrix(1.4054765,0,0,0.82037896,-5.016008,28.095081)" />
    <path
       sodipodi:type="spiral"
       style="fill:#501616;fill-rule:evenodd;stroke:#000000;stroke-width:0.26458332"
       id="path1313"
       sodipodi:cx="89.268021"
       sodipodi:cy="57.526501"
       sodipodi:expansion="54.959999"
       sodipodi:revolution="3"
       sodipodi:radius="54.433823"
       sodipodi:argument="-18.977566"
       sodipodi:t0="0.048999999"
       d="m 89.268021,57.526501 c 0,0 0,0 0,0 0,0 0,0 0,0 1.2e-5,8e-6 -7e-6,3e-5 -1.6e-5,4.2e-5 -0.0024,0.0034 -0.0083,-0.0018 -0.01169,-0.0043 -0.463767,-0.340399 0.651876,-1.837286 0.699479,-1.898715 C 100.24452,42.346579 131.15631,48.09454 143.25646,50.57745"
       transform="matrix(1.9612098,0,0,1.0141703,-65.45617,59.972114)" />
    <path
       sodipodi:type="spiral"
       style="fill:#501616;fill-rule:evenodd;stroke:#000000;stroke-width:0.26458332"
       id="path1315"
       sodipodi:cx="97.28611"
       sodipodi:cy="65.010048"
       sodipodi:expansion="54.959999"
       sodipodi:revolution="3.0149286"
       sodipodi:radius="41.023109"
       sodipodi:argument="-18.969666"
       sodipodi:t0="0.048757371"
       d="m 97.28611,65.010048 c 0,0 0,0 0,0 0,0 0,0 0,0 7e-6,5e-6 -4e-6,1.7e-5 -9e-6,2.4e-5 -0.0014,0.0019 -0.0048,-0.0011 -0.0067,-0.0025 -0.264508,-0.19738 0.382291,-1.051048 0.409878,-1.086073 7.784786,-9.883526 32.655486,-2.498942 40.605726,0.0093"
       transform="matrix(1.5375544,0,0,1.1468588,-19.514623,47.723731)" />
    <text
       transform="scale(0.89472495,1.1176619)"
       id="use1317"
       y="133.74927"
       x="24.746553"
       style="font-style:normal;font-variant:normal;font-weight:600;font-stretch:normal;font-size:36.10029221px;line-height:1.25;font-family:'Adobe Caslon Pro';-inkscape-font-specification:'Adobe Caslon Pro, Semi-Bold';font-variant-ligatures:normal;font-variant-caps:normal;font-variant-numeric:normal;font-feature-settings:normal;text-align:start;letter-spacing:0px;word-spacing:0px;writing-mode:lr-tb;text-anchor:start;fill:#000000;fill-opacity:0.94179891;stroke:none;stroke-width:0.38826808"
       xml:space="preserve"><tspan
         style="font-style:normal;font-variant:normal;font-weight:600;font-stretch:normal;font-size:36.10029221px;font-family:'Adobe Caslon Pro';-inkscape-font-specification:'Adobe Caslon Pro, Semi-Bold';font-variant-ligatures:normal;font-variant-caps:normal;font-variant-numeric:normal;font-feature-settings:normal;text-align:start;writing-mode:lr-tb;text-anchor:start;fill:#000000;fill-opacity:0.94179891;stroke-width:0.38826808"
         y="133.74927"
         x="24.746553"
         id="tspan1319"
         sodipodi:role="line">noble eagle</tspan></text>
    <flowRoot
       xml:space="preserve"
       id="flowRoot5040"
       style="fill:black;fill-opacity:1;stroke:none;font-family:sans-serif;font-style:italic;font-weight:bold;font-size:92.97733561px;line-height:1.25;letter-spacing:0px;word-spacing:0px;-inkscape-font-specification:'sans-serif, Bold Italic';font-stretch:normal;font-variant:normal;text-anchor:start;text-align:start;writing-mode:lr;font-variant-ligatures:normal;font-variant-caps:normal;font-variant-numeric:normal;font-feature-settings:normal"><flowRegion
         id="flowRegion5042"><rect
           id="rect5044"
           width="662.6601"
           height="343.45187"
           x="70.710678"
           y="227.52454" /></flowRegion><flowPara
         id="flowPara5046"></flowPara></flowRoot>  </g>
</svg>
